<svg width="100" height="100" viewBox="0 0 100 100" fill="none" xmlns="http://www.w3.org/2000/svg">
<path fill-rule="evenodd" clip-rule="evenodd" d="M33.2613 8.31532C19.484 8.31532 8.31531 19.484 8.31531 33.2612V66.5225C8.31531 80.2998 19.484 91.4685 33.2612 91.4685H66.5225C80.2998 91.4685 91.4685 80.2998 91.4685 66.5225V33.2613C91.4685 19.484 80.2998 8.31532 66.5225 8.31532H33.2613ZM16.6306 33.2612C16.6306 24.0764 24.0764 16.6306 33.2613 16.6306H66.5225C75.7074 16.6306 83.1531 24.0764 83.1531 33.2613V66.5225C83.1531 75.7074 75.7074 83.1531 66.5225 83.1531H33.2612C24.0764 83.1531 16.6306 75.7074 16.6306 66.5225V33.2612ZM54.0495 33.2613C54.0495 30.965 52.1881 29.1036 49.8919 29.1036C47.5957 29.1036 45.7342 30.965 45.7342 33.2613V45.7342H33.2613C30.965 45.7342 29.1036 47.5957 29.1036 49.8919C29.1036 52.1881 30.965 54.0495 33.2613 54.0495H45.7342V66.5225C45.7342 68.8187 47.5957 70.6802 49.8919 70.6802C52.1881 70.6802 54.0495 68.8187 54.0495 66.5225V54.0495H66.5225C68.8187 54.0495 70.6802 52.1881 70.6802 49.8919C70.6802 47.5957 68.8187 45.7342 66.5225 45.7342H54.0495V33.2613Z" fill="white"/>
</svg>
