<svg width="100" height="100" viewBox="0 0 100 100" fill="none" xmlns="http://www.w3.org/2000/svg">
<path fill-rule="evenodd" clip-rule="evenodd" d="M8.31531 33.2612C8.31531 19.484 19.484 8.31532 33.2613 8.31532H66.5225C80.2998 8.31532 91.4685 19.484 91.4685 33.2613V66.5225C91.4685 80.2998 80.2998 91.4685 66.5225 91.4685H33.2612C19.484 91.4685 8.31531 80.2998 8.31531 66.5225V33.2612ZM17.1546 29.1036H36.5894L29.854 16.98C23.6556 18.2705 18.7225 23.0116 17.1546 29.1036ZM57.3777 29.1036H46.1018L39.1723 16.6306H50.4483L57.3777 29.1036ZM66.8901 29.1036H82.6292C80.783 21.9307 74.2717 16.6306 66.5225 16.6306H59.9606L66.8901 29.1036ZM83.1531 37.4189H16.6306V66.5225C16.6306 75.7074 24.0764 83.1532 33.2612 83.1532H66.5225C75.7074 83.1532 83.1531 75.7074 83.1531 66.5225V37.4189ZM60.651 58.5995C61.4585 58.115 61.4585 56.9448 60.651 56.4604L43.5344 46.1904C42.703 45.6916 41.6453 46.2904 41.6453 47.2599V67.7999C41.6453 68.7695 42.703 69.3683 43.5344 68.8695L60.651 58.5995Z" fill="white"/>
</svg>
