<svg width="100" height="100" viewBox="0 0 100 100" fill="none" xmlns="http://www.w3.org/2000/svg">
<mask id="path-1-outside-1_102_40" maskUnits="userSpaceOnUse" x="7.60577" y="7.63062" width="84" height="84" fill="black">
<rect fill="white" x="7.60577" y="7.63062" width="84" height="84"/>
<path fill-rule="evenodd" clip-rule="evenodd" d="M74.745 72.0597C79.9904 66.1765 83.178 58.4189 83.178 49.9167C83.178 31.5333 68.2753 16.6306 49.8919 16.6306C31.5085 16.6306 16.6058 31.5333 16.6058 49.9167C16.6058 68.3002 31.5085 83.2029 49.8919 83.2029C56.2156 83.2029 62.1275 81.4394 67.1626 78.3775L76.5313 80.3871L74.745 72.0597Z"/>
</mask>
<path d="M74.745 72.0597L68.5384 66.526L65.7294 69.6766L66.6147 73.8037L74.745 72.0597ZM67.1626 78.3775L68.9066 70.2471L65.6702 69.5529L62.842 71.2728L67.1626 78.3775ZM76.5313 80.3871L74.7873 88.5175L87.3582 91.214L84.6617 78.6431L76.5313 80.3871ZM74.8627 49.9167C74.8627 56.3004 72.4782 62.1071 68.5384 66.526L80.9517 77.5935C87.5026 70.2459 91.4934 60.5374 91.4934 49.9167H74.8627ZM49.8919 24.9459C63.6829 24.9459 74.8627 36.1257 74.8627 49.9167H91.4934C91.4934 26.9409 72.8678 8.3153 49.8919 8.3153V24.9459ZM24.9211 49.9167C24.9211 36.1257 36.1009 24.9459 49.8919 24.9459V8.3153C26.9161 8.3153 8.29046 26.9409 8.29046 49.9167H24.9211ZM49.8919 74.8876C36.1009 74.8876 24.9211 63.7077 24.9211 49.9167H8.29046C8.29046 72.8926 26.9161 91.5182 49.8919 91.5182V74.8876ZM62.842 71.2728C59.0721 73.5653 54.6491 74.8876 49.8919 74.8876V91.5182C57.7822 91.5182 65.1829 89.3135 71.4831 85.4822L62.842 71.2728ZM65.4186 86.5079L74.7873 88.5175L78.2753 72.2568L68.9066 70.2471L65.4186 86.5079ZM84.6617 78.6431L82.8754 70.3157L66.6147 73.8037L68.4009 82.1311L84.6617 78.6431Z" fill="white" mask="url(#path-1-outside-1_102_40)"/>
</svg>
