<svg width="1116" height="828" viewBox="0 0 1116 828" fill="none" xmlns="http://www.w3.org/2000/svg">
<path d="M463.874 16.8496L115.518 64.5019C51.3878 73.2744 7.22059 137.559 16.8681 208.086L60.5388 527.335C70.1861 597.86 129.995 647.923 194.126 639.15L542.482 591.498C606.611 582.726 650.779 518.44 641.132 447.914L597.461 128.665C587.814 58.1386 528.004 8.07721 463.874 16.8496Z" fill="#262626" stroke="white" stroke-width="30" stroke-linecap="round" stroke-linejoin="round"/>
<path d="M116.893 610.899C182.598 374.104 257.282 323.975 367.718 456.66" stroke="white" stroke-width="30" stroke-linecap="round" stroke-linejoin="round"/>
<path d="M366.821 455.899C432.526 219.104 507.21 168.975 617.646 301.66" stroke="white" stroke-width="30" stroke-linecap="round" stroke-linejoin="round"/>
<path d="M224.459 308.993C259.48 304.202 283.804 270.6 278.788 233.937C273.773 197.276 241.319 171.439 206.298 176.229C171.278 181.02 146.954 214.623 151.969 251.285C156.985 287.948 189.439 313.783 224.459 308.993Z" stroke="white" stroke-width="30" stroke-linecap="round" stroke-linejoin="round"/>
<path d="M956.833 190.743L620.231 123.77C558.264 111.441 496.769 158.042 482.879 227.857L420 543.884C406.109 613.698 445.082 680.29 507.049 692.62L843.651 759.592C905.616 771.921 967.112 725.319 981.003 655.505L1043.88 339.478C1057.77 269.663 1018.8 203.072 956.833 190.743Z" fill="#262626" stroke="white" stroke-width="30" stroke-linecap="round" stroke-linejoin="round"/>
<path d="M702.503 305.708C666.183 311.112 647.317 375.046 637.896 422.399C628.474 469.752 621.74 534.481 652.915 554.935C684.092 575.388 845.028 518.993 855.628 465.72C866.227 412.448 741.188 299.802 702.503 305.708Z" fill="#262626" stroke="white" stroke-width="30" stroke-linecap="round" stroke-linejoin="round"/>
</svg>
