<svg width="100" height="100" viewBox="0 0 100 100" fill="none" xmlns="http://www.w3.org/2000/svg">
<path fill-rule="evenodd" clip-rule="evenodd" d="M16.6305 45.7342C16.6305 29.6607 29.6606 16.6306 45.7341 16.6306C61.8076 16.6306 74.8377 29.6607 74.8377 45.7342C74.8377 61.8077 61.8076 74.8378 45.7341 74.8378C29.6606 74.8378 16.6305 61.8077 16.6305 45.7342ZM45.7341 8.31531C25.0682 8.31531 8.31519 25.0683 8.31519 45.7342C8.31519 66.4001 25.0682 83.1531 45.7341 83.1531C55.6579 83.1531 64.6794 79.29 71.3768 72.9856C71.5264 73.2096 71.7 73.4223 71.8978 73.6201L88.5284 90.2507C90.1521 91.8744 92.7846 91.8744 94.4082 90.2507C96.0319 88.627 96.0319 85.9946 94.4082 84.3709L77.7776 67.7403C77.4229 67.3855 77.02 67.1083 76.59 66.9086C80.7299 60.8873 83.153 53.5937 83.153 45.7342C83.153 25.0683 66.4 8.31531 45.7341 8.31531Z" fill="white"/>
</svg>
